<?xml version="1.0" ?><svg viewBox="0 0 64 64" xmlns="http://www.w3.org/2000/svg"><title/><g id="Youtube"><path d="M44.5,9A10.51,10.51,0,0,1,55,19.5v25A10.51,10.51,0,0,1,44.5,55h-25A10.51,10.51,0,0,1,9,44.5v-25A10.51,10.51,0,0,1,19.5,9h25m0-2h-25A12.5,12.5,0,0,0,7,19.5v25A12.5,12.5,0,0,0,19.5,57h25A12.5,12.5,0,0,0,57,44.5v-25A12.5,12.5,0,0,0,44.5,7Z"/><path d="M24.94,22a.42.42,0,0,1,.21.06l17,9.54a.43.43,0,0,1,0,.76l-17,9.54a.42.42,0,0,1-.21.06.46.46,0,0,1-.45-.45V22.47a.46.46,0,0,1,.45-.45m0-2a2.45,2.45,0,0,0-2.45,2.45V41.53A2.45,2.45,0,0,0,24.94,44a2.36,2.36,0,0,0,1.18-.32l17-9.53a2.44,2.44,0,0,0,0-4.26l-17-9.53A2.36,2.36,0,0,0,24.94,20Z"/></g></svg>